# xmcd
#
# Track frame offsets: 
#        150
#        17152
#        40596
#        59052
#        77527
#        102055
#        118161
#        132706
#        163918
#        191290
#        209158
#        232969
#        253216
#        277286
#        299826
#        324236
#        342981
#
# Disc length: 4763 seconds
#
# Revision: 0
# Processed by: cddbd v1.5.2PL0 Copyright (c) Steve Scherf et al.
# Submitted via: ExactAudioCopy v1.3
#
DISCID=0f129911
DTITLE=Various Artist - Akella Presents - vol. 213 - Blues-Rock  CD1
DYEAR=2019
DGENRE=Blues
TTITLE0=Blindstone - Groove Nation
TTITLE1=Larry Miller - Women And The Blues
TTITLE2=Junkyard - Out Cold
TTITLE3=The Tony Nash Trio - Voodoo Doll
TTITLE4=Ghost Town Blues Band - Sugar Mama
TTITLE5=Stavros Papadopoulos - Groovin' High
TTITLE6=Fabian Anderhub - Out The Door
TTITLE7=Andreas Diehlmann Band - Deadman Walking
TTITLE8=Tubesnakes - All Beat Up Over You
TTITLE9=Andy Lindquist - Inside My Skin
TTITLE10=Lucky Peterson - Going Where My Roots Come From
TTITLE11=Nandha Blues - 749 Blues
TTITLE12=The Broken Bros Blues Band - Joey T.
TTITLE13=The Andy Taylor Group - Loose Canon
TTITLE14=Mighty Joe King - Born To Suffer
TTITLE15=Chris Juergensen - Nothing's Got Me
TTITLE16=Goodbye June - Lonely Beautiful People
EXTD=
EXTT0=
EXTT1=
EXTT2=
EXTT3=
EXTT4=
EXTT5=
EXTT6=
EXTT7=
EXTT8=
EXTT9=
EXTT10=
EXTT11=
EXTT12=
EXTT13=
EXTT14=
EXTT15=
EXTT16=
PLAYORDER=
